<mxfile host="app.diagrams.net" agent="Mozilla/5.0 (Windows NT 10.0; Win64; x64) AppleWebKit/537.36 (KHTML, like Gecko) Chrome/131.0.0.0 Safari/537.36" version="26.0.4">
  <diagram name="Page-1" id="2YBvvXClWsGukQMizWep">
    <mxGraphModel dx="1360" dy="576" grid="1" gridSize="10" guides="1" tooltips="1" connect="1" arrows="1" fold="1" page="1" pageScale="1" pageWidth="850" pageHeight="1100" math="0" shadow="0">
      <root>
        <mxCell id="0" />
        <mxCell id="1" parent="0" />
        <mxCell id="aM9ryv3xv72pqoxQDRHE-7" value="Request&amp;nbsp;" style="html=1;verticalAlign=bottom;endArrow=block;edgeStyle=elbowEdgeStyle;elbow=vertical;curved=0;rounded=0;" parent="1" edge="1">
          <mxGeometry x="-0.0435" y="10" relative="1" as="geometry">
            <mxPoint x="285" y="270" as="sourcePoint" />
            <Array as="points">
              <mxPoint x="470" y="270" />
              <mxPoint x="180" y="120" />
            </Array>
            <mxPoint x="640" y="270" as="targetPoint" />
            <mxPoint as="offset" />
          </mxGeometry>
        </mxCell>
        <mxCell id="Odu70AZVy3-vQ3g0MWYu-2" value="Actor" style="shape=umlActor;verticalLabelPosition=bottom;verticalAlign=top;html=1;outlineConnect=0;" parent="1" vertex="1">
          <mxGeometry x="160" y="60" width="30" height="60" as="geometry" />
        </mxCell>
        <mxCell id="Odu70AZVy3-vQ3g0MWYu-3" value="/case" style="text;html=1;align=center;verticalAlign=middle;resizable=0;points=[];autosize=1;strokeColor=none;fillColor=none;" parent="1" vertex="1">
          <mxGeometry x="100" y="268" width="50" height="30" as="geometry" />
        </mxCell>
        <mxCell id="Odu70AZVy3-vQ3g0MWYu-10" value="" style="endArrow=classic;html=1;rounded=0;" parent="1" edge="1">
          <mxGeometry relative="1" as="geometry">
            <mxPoint x="170" y="282.40999999999997" as="sourcePoint" />
            <mxPoint x="270" y="282.40999999999997" as="targetPoint" />
          </mxGeometry>
        </mxCell>
        <mxCell id="Odu70AZVy3-vQ3g0MWYu-13" value="GET" style="edgeLabel;html=1;align=center;verticalAlign=middle;resizable=0;points=[];" parent="Odu70AZVy3-vQ3g0MWYu-10" vertex="1" connectable="0">
          <mxGeometry x="-0.3222" relative="1" as="geometry">
            <mxPoint as="offset" />
          </mxGeometry>
        </mxCell>
        <mxCell id="Odu70AZVy3-vQ3g0MWYu-19" value="" style="edgeStyle=orthogonalEdgeStyle;html=1;endArrow=none;elbow=vertical;startArrow=openThin;startFill=0;strokeColor=#545B64;rounded=0;" parent="1" edge="1">
          <mxGeometry width="100" relative="1" as="geometry">
            <mxPoint x="290" y="310" as="sourcePoint" />
            <mxPoint x="630" y="310" as="targetPoint" />
          </mxGeometry>
        </mxCell>
        <mxCell id="Odu70AZVy3-vQ3g0MWYu-20" value="&lt;font style=&quot;font-size: 11px;&quot;&gt;Response&amp;nbsp;&lt;/font&gt;" style="text;html=1;align=center;verticalAlign=middle;resizable=0;points=[];autosize=1;strokeColor=none;fillColor=none;" parent="1" vertex="1">
          <mxGeometry x="415" y="288" width="80" height="30" as="geometry" />
        </mxCell>
        <mxCell id="Odu70AZVy3-vQ3g0MWYu-22" value="" style="shape=image;verticalLabelPosition=bottom;labelBackgroundColor=default;verticalAlign=top;aspect=fixed;imageAspect=0;image=data:image/png,iVBORw0KGgoAAAANSUhEUgAAAOEAAADhCAMAAAAJbSJIAAAAZlBMVEX///8AnNsAldkAmtoAmNoAlNgAntzm9Pvs+Pzi8vqm1e/0+/36/v/U6/ec0O18wuhyvue33fJZtOORzOzE4/TO6Pau2PB6weg6rOAepN5sueXS6vcwp9+k0+6FxupftuS/3/NNsOKamnSdAAAKYUlEQVR4nO2d2ZqqMAyAx7agiCLuoujo+7/kkRa0SYqCYnHOl//SAaYlabYu/PwwDMMwDMMwDMMwDMMwDMMwDMMwDMMwDMMwDMMwDMMwDMO0Jj7Ml+lil2WhDLNst9gu54e470Z1xWi1vGRCKCVtlBIiuyxXo76b9y7rU9E5KQcurv28dvO07ruRr7NOw2vvnJ2zuqlEuP2TnRwloUCys5QU/S7C5K+pa5QqS3paHYXMLvt0O9um+0smBVTe67hMo74b3YLpJZD3tguRp8kqgqYzjs5JmgtLi2VwOfTU3rZEFyHv3ctOq3q3EK+ulujWSSkWf0GOcVrJT8ogXz5vcpTkQaWvMthOPLTxLY5KVeKTs2nDm6LZoBK7kuOPtu9dhjtRKVzWrqWb7Hbnbvih1nXAppSEFPm89c3n/Hb3t4px8luKQQ3a969gPig1XCy+cjRGg0oEy5efkZR2VYZfaFTPZePE5Z1hNLqI8jW9pgYfJAlKC/ruGBqXbyp4XRM+wta8epW/bweHuRmNIu2gXZ2xNx0MumnU1uiD+O3kaZ2wUGbsbDp6Xul11KKj573Nr+mg6i7LW5vBqL5EiqkwUWiXBn5oXM93jMWl6WDYbQo7Ck0Xv8CingPTQZwitY1K8PWx6WJwfr1p3RAppwSHl33LB81ypOVDk1KpnqObiR4vUiI3OBZSrFo9aCpkcIQ/DbW5kWG/MeqvGS2o/LAQRctaPSiT1AGuRf8GdaPbEEA/OMq05qpTiwclpjMh1IWNHuOdudkXGJp2zcCP06okIZqm+IVCVoUBqNtb/bvoLyXe6YGSg9/W9zJUXnMb5XK7J4A5Ra7/w66T1r7A2IgQmNGVuBdBRdLwQRtxuwepvBFuX0l/rG0dHCVrq4PXzjdTrxjUwKEH1J2Xsp95qrR4v/Ji/zQFHUR/rOUXFvkFiG+1AqteorcoIGIa4UmmRmZwJeBNEjh5o6dBH37fvFwQN2Z4oqmJek0G5K6B7eQTrSo9JFJTPUAG9k97NcDI58HbzHEX0G4doLZwPV2hRQjqRRtBmnq94lnwNnXeZVvhuehFiHoUAo83cjUVSdkB0WxNYA9v7RS9j8SUiPDibCqOeDBLqqP6xdhO/qyF6NmcjvTwz6xfnDqqNe7RCIpq77KdvJaz8jtLrA0cqI3WrEa4ktU+pYz73LK37OlY/7emEVI3FPZNSqsRNdqm21pfiRjXiRBpd/H6WqZjb3LQI8NqQ1wvwge5AYkQ6u6aaVvj02HMsHU71YvwQW6weLQURW7vFxrL3SbhfBetpJarmDxeNVMTvJ3rdVTfZcVDuWc11V7aHvnHRyKsC94m4eP3Yv8Dbdk8xjXarAhLSfMnK5+kq9aSPn4tQGbaqzwwWV2DdWYa4Mbh1oozecga30TustOowiX6y/VjbEmxnZE0yRiQmiC9Bv9ihzEnHUP5SoR1lc8OqfGACqIt1kC1RQ8hDlQuYpwoWjGtTiKFrxV+Zhje3ycOva7OmloR1DoSrkkVk15b98TYuH2UBfIV2JJe20o9gYTBG7FNRSA6QRGAbVr02PeVQulRb40RVGcxpWDizYElPJIXoK1Iohw/GopkRj4KcTuEKAx68ybcohGZ5V5GxFGYP05Qx8XdPh3R0PgkB2RoImj2K1UiUbWl2CSXrASc1pbdjHnz4/P1ELMEcoYCuaXFJDO65Xzz2kG6hn+x8jM9g+Bwq5/ARFB3/UEWUFWaNCRhZ5nExtS33yav4J/s6NujMZ2hiAYaGss6JMTlmRoaqclZuWDtw0y07ye92KMAKoettUxmhoWotYyEa7Znh57HfpGF0jcoTnbBBXkm6NztoUIqhbosQIMBKzw6CHJ9SSHdhtME75JDdxgj82dX/Ui1V6U0WQaJRwwFbJWftJltPmH3Dtrh303ACPYwACE2lRcdnDB5hGK3Shlbfy5f9/BuG5D3VuBaPOsyGFBfvyFPd/Zw5q+HyKhBp4Br3Punu4LQ0IJ2y9L5Qrs9FTIeyhC/5YdFOC1TVIjb1cnw5FlL68Yhecu1tfCyC9iH1/bQo5Y+tKVS4str5jPKy4lxhGlVP7b0iT/El9Pgzb6ahNLwaZad9egP9cu0Yhpo/QIygZI8KN3TKAz4w55iGhyXQjV0JDjuKcKB0zQiy2xpZQgN3CfBuQUMUhStb9dPodHKEnSgPeUWOh+0jNxc1TWqomZWw7WGBKZi6r5cUQtXnT/QH8oBFfZgfO006M76PZidq4CmtKcc39RprMWgKJR0TLivXXrq2haDDG9wN6U+6zSk1gadtHN2wTFH4bT8SW2A5LPWRuqlSW3WegNXQgc18/JQnW1n4rVemiCFQYmus1xEik/i6LgKpSJWauy35k3mLVD5yKlLqELsXnyKKuFWBOh33oLMPeEqp2vKdyQAzgVASNC2UvqdezIBlDXcDqgm7JzyjUcAxxV4sNpq4nf+8OkcsHPK9zkoW6ZzwP5W1Dydxw9eWV6/QVVG2+34nscnazHw3CbZgdGAA3mGpcm5T29YcHq2nqb9TrYIn/NixxR68qfVBo530UsTHq6JatvFKTnIxo4I/K+JKte1WT/QaflWGy7hGv8Blpj/dW10beKEyEAGzU3fMqBBnZV4HHtYm9hofalYNPPQ8cVxrx3UhT2sL3WsEXYsw5Oyidc4Os6SAs593sca4YbrvBscAXLOnLlj/+u8HWv1yfqKAdZkF84lcaBObDYG+akj2qzpfotfRznmqRMjc1GkO9oRvRBCvI0ed0/2zDTYb0FCmQHaGHvqa89MucgEDJghtRnPtwXR7B9Uekwpspd9T8acQoVakSn65wkPscFwk2WPe9ec+w9JfvDcTZO8BGynNGZG9XROpjGecALwCLvYwECgJVUwEhr1uofUvQ94DKdWGjwF1NegBPveB1zt5YZ1/LkVRDcygVaVR6LUedb3Xu5ydR5q1vRuHZWrZIjZ3AailDAfKffj93q4mTGEaLTF1bl0zgo/4VbJVzkMro2r7MUV3inPxcDLDcpsqGFKZwIFGaDwpzoXo6Omvko5N4jPNolybeWbTdlutcvLUMY8CpurwUeZ15xPUxwR6ZgtdXEWjmPsqvNpvuDctuqMIWzwJjMVNDxxIBApfkHVMUp+E/saas+JGjXdxbMk6Xtk7LFwTCj3QXXWV7szdx5RnfXlZ+lFA6rz2rpyXONvO6/tKsVOz9xLv+/MvWosXk3++7Y9yr7x3MS7j39bU0sN/bqzL6/Jbyfnlw5v55f2eDhUHVGoysa9/vaX1VHC0v9BH03Y/+fnCP/YZ0Fn7fs4//6zoH/0ed63PrZq5uQY3u785vO8r4yldSZ7U9cRzWRVh/z2M9l/8Ln6Sdtz9UkI/o38799GKKDftziu8eAaro/F9y3uNZ0/9H2LAsc3SlR22W9nBdv9JVN/+xslBaMkDOCUBPgaEvxD8Pe+M6OZnhp+K+j0nRFMI6bJ7sn3nnbJH+6eYbJ+8M2u9beGZ63B311L/6fvrjEMwzAMwzAMwzAMwzAMwzAMwzAMwzAMwzAMwzAMwzAM45N/F8BqFbmAIkYAAAAASUVORK5CYII=;" parent="1" vertex="1">
          <mxGeometry x="250" y="50" width="60" height="60" as="geometry" />
        </mxCell>
        <mxCell id="TBmU6OTi5INBtIkwRago-1" value="Salesforce service cloud sys api" style="shape=umlLifeline;perimeter=lifelinePerimeter;whiteSpace=wrap;html=1;container=0;dropTarget=0;collapsible=0;recursiveResize=0;outlineConnect=0;portConstraint=eastwest;newEdgeStyle={&quot;edgeStyle&quot;:&quot;elbowEdgeStyle&quot;,&quot;elbow&quot;:&quot;vertical&quot;,&quot;curved&quot;:0,&quot;rounded&quot;:0};size=60;" vertex="1" parent="1">
          <mxGeometry x="230" y="120" width="100" height="510" as="geometry" />
        </mxCell>
        <mxCell id="TBmU6OTi5INBtIkwRago-2" value="" style="html=1;points=[];perimeter=orthogonalPerimeter;outlineConnect=0;targetShapes=umlLifeline;portConstraint=eastwest;newEdgeStyle={&quot;edgeStyle&quot;:&quot;elbowEdgeStyle&quot;,&quot;elbow&quot;:&quot;vertical&quot;,&quot;curved&quot;:0,&quot;rounded&quot;:0};" vertex="1" parent="TBmU6OTi5INBtIkwRago-1">
          <mxGeometry x="45" y="80" width="10" height="430" as="geometry" />
        </mxCell>
        <mxCell id="TBmU6OTi5INBtIkwRago-3" value="" style="html=1;points=[];perimeter=orthogonalPerimeter;outlineConnect=0;targetShapes=umlLifeline;portConstraint=eastwest;newEdgeStyle={&quot;edgeStyle&quot;:&quot;elbowEdgeStyle&quot;,&quot;elbow&quot;:&quot;vertical&quot;,&quot;curved&quot;:0,&quot;rounded&quot;:0};" vertex="1" parent="TBmU6OTi5INBtIkwRago-1">
          <mxGeometry x="45" y="130" width="15" height="80" as="geometry" />
        </mxCell>
        <mxCell id="TBmU6OTi5INBtIkwRago-37" value="" style="html=1;points=[];perimeter=orthogonalPerimeter;outlineConnect=0;targetShapes=umlLifeline;portConstraint=eastwest;newEdgeStyle={&quot;edgeStyle&quot;:&quot;elbowEdgeStyle&quot;,&quot;elbow&quot;:&quot;vertical&quot;,&quot;curved&quot;:0,&quot;rounded&quot;:0};" vertex="1" parent="TBmU6OTi5INBtIkwRago-1">
          <mxGeometry x="45" y="260" width="15" height="80" as="geometry" />
        </mxCell>
        <mxCell id="TBmU6OTi5INBtIkwRago-47" value="" style="html=1;points=[];perimeter=orthogonalPerimeter;outlineConnect=0;targetShapes=umlLifeline;portConstraint=eastwest;newEdgeStyle={&quot;edgeStyle&quot;:&quot;elbowEdgeStyle&quot;,&quot;elbow&quot;:&quot;vertical&quot;,&quot;curved&quot;:0,&quot;rounded&quot;:0};" vertex="1" parent="TBmU6OTi5INBtIkwRago-1">
          <mxGeometry x="45" y="380" width="15" height="80" as="geometry" />
        </mxCell>
        <mxCell id="TBmU6OTi5INBtIkwRago-4" value="Salesforce service cloud" style="shape=umlLifeline;perimeter=lifelinePerimeter;whiteSpace=wrap;html=1;container=0;dropTarget=0;collapsible=0;recursiveResize=0;outlineConnect=0;portConstraint=eastwest;newEdgeStyle={&quot;edgeStyle&quot;:&quot;elbowEdgeStyle&quot;,&quot;elbow&quot;:&quot;vertical&quot;,&quot;curved&quot;:0,&quot;rounded&quot;:0};size=60;" vertex="1" parent="1">
          <mxGeometry x="600" y="110" width="100" height="90" as="geometry" />
        </mxCell>
        <mxCell id="TBmU6OTi5INBtIkwRago-7" value="" style="endArrow=classic;html=1;rounded=0;" edge="1" parent="1">
          <mxGeometry relative="1" as="geometry">
            <mxPoint x="170" y="282.40999999999997" as="sourcePoint" />
            <mxPoint x="270" y="282.40999999999997" as="targetPoint" />
          </mxGeometry>
        </mxCell>
        <mxCell id="TBmU6OTi5INBtIkwRago-8" value="GET" style="edgeLabel;html=1;align=center;verticalAlign=middle;resizable=0;points=[];" vertex="1" connectable="0" parent="TBmU6OTi5INBtIkwRago-7">
          <mxGeometry x="-0.3222" relative="1" as="geometry">
            <mxPoint as="offset" />
          </mxGeometry>
        </mxCell>
        <mxCell id="TBmU6OTi5INBtIkwRago-9" value="" style="edgeStyle=orthogonalEdgeStyle;html=1;endArrow=none;elbow=vertical;startArrow=openThin;startFill=0;strokeColor=#545B64;rounded=0;" edge="1" parent="1">
          <mxGeometry width="100" relative="1" as="geometry">
            <mxPoint x="290" y="310" as="sourcePoint" />
            <mxPoint x="640" y="310" as="targetPoint" />
          </mxGeometry>
        </mxCell>
        <mxCell id="TBmU6OTi5INBtIkwRago-26" value="" style="shape=image;verticalLabelPosition=bottom;labelBackgroundColor=default;verticalAlign=top;aspect=fixed;imageAspect=0;image=data:image/png,iVBORw0KGgoAAAANSUhEUgAAAOEAAADhCAMAAAAJbSJIAAABC1BMVEX///8An+AAoN4An+IAoeEAod4BnuIAot8Ant/8/PwAn9sAnd8AnuMAnt0AnN0AoOTy8vMAm+EAodrp6uvi5OT2+/wAn+jS1NXw+fwAo9kAneh/hojn6Oju7++LkJR8gocAnOzCxcetsbPk9Pmj2fIApt/p9vvY2dqfpKaqr6+DiY67vb+Ij48Ald+y3fHN6vUAn886seGo2/E2sex5y+rU7fhjwuyl3e2Q1fSTmJuOkZm+4fDY7/mbzu14vegqqt1esuJFs91wxumd0eGMxuiRw+tQvd8lqNCHxeBhvux0xet7yuQ4s+F9zPBTwu1At+90yeCs0ec3tdi12eQrrtLF4vduveyT0/UAncHFVsFdAAAY/klEQVR4nO1dCVviStYmqcpCkkpIhECCIlsAQUFQEQYcWrqnr6C2s9259///ku+cJKzarQIuM1/ep597OyFVqbfOqbPUko7FIkSIECFChAgRIkSIECFChAgRIkSIECFChAgRIkSIECFChDlSmdJFawBoDSuZ+Ee3ZucoDa7+2h45lsIYMYyzL9/KrcpHt2mHyAymI+PkRFcUmXCUcrJ5cmLSs+kg9dEt2w1K5WtH0V3X4C2eAiTLkU1R1DTNmDQzvy4bB7xPKzdHpdxWRVngTZtSnqc8JZzg8JxlCXCp69eXP+GYGg46NzfT8fjmptxsPdMRH4j4oE1VzRYpJ5oGhxKkhAiOwBwYkgqMSsX50XpcLNPqPVBJYEQk8IeTvLtx83MO28qNpRqGaGsaKqVGYAxyHBEsgbeQIYKpp1/XJDQEtRY0VzMCaLatMUH2blqfb9i2rhkQ4ohPD8cdR4AlL4BBVeZgyum4tFRo+O2MMR36goaAKgjot8i88eCTDcrmyAJl5ImIIIRwPoAhz5Yg80xtzzU1c+X5hXhf3D5PLKRyvARkvZvSr1743uhIJuc4EgEV/RVDJvDElQZBmdYP07ROHUGWZf9Z/w8QVDnqSZLHs3bz86hqx+Ns26IwiH4tQwYGxzwZIcV4p21ZJnGobarcCkNdljzJcRz1xPz2WUxO0yPUdikYipAZ2hj4K1obfhWKoqv6qBVLfXNNXuKoRP3eoNwCsgxqK4A/JaLaHX40Nx+tkWobGprDBUFkSAg0fI0hByORU9sXfzvJuxjzhINvmeEMaHn4689AsXStcC6wm+vmLxn6MEUI5Ux1bkCfZAhFBUH5BBRTt2gQIWxZZfhLAMETtCgL/ORBolrfP9ykNi1g6ADDn7XyCaiiKXLLBH9SlhBVsMYfbFFLZ4blSbwfZ9O5Gv4agfujzzPkGEd062v4qngG4tfy7TngFuLXyjsx72maJKHB4H/ezic4ruOnT4Ke/oYxQmbYvLmmkLTwfjTIcd7d95tB6e1ZDkeaQQxffK9hiHJ8IUNOsLqZ4dUXSWG6ZuOdIEaHzIwxyDvfOhXpyeglKLr2F6roMssXMARGMt8+s9G5yDPMyoLHpGd/vKkpKt0x9BMcjsBZO0mAnTHkOMg4bMysFrERHw58CSKN/Kj8hhw7CvNd39syRONLqazLywzhfbwk8UwgqtzuvNl4nIhModwqQ27XDHnFYvAsW2MI8REwVByLEo1O3ygwGFJTZ7wfg3LLQcsLGb4KjzuB9yM+QaGYOo8Gb8KwY5yYIUP+rRn+lDn4TLB10qj8Fpp6r5mm/k4yfIanJEnT3edaqYnoU1t5F16+N0OCempY4537xlJbJ9oTDHnunSUIgMHo7Z7ihaPo9pxhKDZk+FrXvz0/CgzBsk53THFwaikcv2AYSm45E3wvwPsIFRTlarcMm6eQGD7BUBHenyPOhsi6LjV3yvDy1FplGFgYSM0/hiExbbG9U9d/uS7DkCH/EXqKFtV2ud0mzJeniqJ8HoYcgeyKKbvU0ybEi0JIhZBPwBBhtneYaQxELZi64Fej7Q8gN4eqGb3dMfzdNj8dQ050z3ZnbC6oCTHvY4YfClWTyztjWGrbmspexPBl7Bnjtu4nldPvdhaCp7oatYTnGUK7RQJO8lmCsqwa/qrjNhTpLs3pDaW4/vcMQ55XRVx1CiYCf8WQ6aYq+/8PVtw2Aq+w6c5WV5vSC2TIKwr3cHt7Jz03XQFNY3e9waDz5cTUN2coWIq3M4dRGhmh63uKoW9ScUFNoTD2z6mxynDdY/KC4vX83OBvJ0Bx6Rf2iMXyq9YtNy8wo7MrhrGp8oSWshmB4NUgGgkYjg17hSFZY8hzTOilYqlhq3V2Yqr67C4Oz0cUiSFy3E9SGXiJO90Zw5a1ylDT4D9s/l5sBJBSUYZjDmRIgil5XO4nIDOeExdOlGN3pVjm3nM8GIegpX5vQB1gf2YM8WGVaBpnaOJ8YfVRAAUMH3aWJ16cQdqJ9Wu4fsjJbt5UGU6hghMRFEFVVSZQcmIDw1uL4mSDvwaumbbGYTrH4V+w14nKG/xtPNYkpr9pgzGFQYVB6xUZ61ZFKA5WSHVdQzNFzt+4IaoMcjVJklZkqO3K6aeaZ3agd0STZY0wBgyhaWD0ZR7XNzldVySquT5Dj0LX2xq2FRjaBgxQS9bAdsqyDN6EJ9ZlLDWFEcgsR2EWJNc+Qw63AkBP6SpnGERQmC6amunauISumqYOsT9S5MMtHTh5S4m1m7nFzLlkmmG1BmUm1x5flXvjO0/WZSo9dO97Pbiitu0aaGkESg2NPox7vfuJZGsGUxSpPS53etMHaprc6Me4FEt9+zI5o5LkTc6hbFsCVRT49o8fnnc3nf7weJl5d/flcq/7YGgGlc4m973zicdQiFI4JQ0DQZV34xFLXZmJKu61wMk8KrP7QDUqzTtVH3UCg5266Lq24TPURap6wRJDptk2NM5yzkthiQeTvw1qjafuDToJVpRKZQ9GtVKOpXoduFH6t8Xa4f6/4UPe9Xr+C1ODO5VK0mzSHUe5zHYRuA2/oMLJ4RCXJNbNxFKliyEkoFOit8EqVkolaE6lK/kMbxVKcGI6NRxmcHeDTZ2/Q4nhBa4BTkzaSaGbTqUqE3tSwvVCvN8cKcrpJdzGP01Fx70ZUG8l1crnKcgp7lc2bDMJV2losKkKVF6/2Z5g6RoXqud+GYbCIJa6HUl0Uh48yLrU7HTPpLMuUBp4AUOLMnBTw7HndS9isbJG71qo6IYEJTwm3H3/iruIfvwwKPw8mEh0CkQvHQsZxjKd8/O2KQHBi+ndXXvykM9/g947PzO+DDDy4EKGdMZw66imMtF5HpfyQkMOCliJDU/B0JmyBB4QNNI0XU2+rkBYYBu+txCvM7HKtQl2YgJ32/xdJtaCkayqHO7+EmTo91umyPl7oOGZZj7fTcHzioUyvLesU4Vc4ZKsySwwO5oDo/bGEnRTuohlJoRbY7jtXEbqm66velllBM7sxtFNTRMFSxJNYOo4o3+DnK59huecCalpU7NFMBJNsJraqBKrTBU0EzxuduDh5newxBwI5Vwjhut6Lfgb44HhQFIcR5FasfiNDvYUWKjjFPQoRLu6DtXez5eUQ4bTbRn+A8w0g1GoqsGeNNwMjGNsAPZP5i1LYny7N2hdtP6VmTNURRg4ze4UMYjFv6mzEp5gQQMtD2TxT0VxfgPhXNuaZpsWaHVZQIZX6D34M+iSaxkSUqKJ2F3D8XQ8nk6h2p4nSXSXMrywIHIEpyeLIgmXAS0rmMcrNccjC1Tqdh78Zto2haaey9TfzxYL//NNcb5jifiw+d1TXVtpl2LD3xh/+k/Q5TYu+6oKsLj0VCh8o6B/hEhlOIIokCeiZmLomZrxuBxZawy3G4epMVNNEQKWcJcezqlLvDkq+1sjUpcjxfo72NJW+eaquZChjgwzJR/D0nAMgmh3/BKZMvSJArZ4YMnU+Y4MzRnDpqN1sDtChhcjA4M9jpgguVRphntrnrkgQ3VbWzrwcIMzWTDk0ZmbGhmNOyiWng6DEvwabynWfBze6gTVSfJGjidRb+RBEMvxo6nvOG8Yp4Nt7EGg4vwbBvSdacB4Rq/WsVBLv/la+oAGChgynPyF3/71m+eNEB5FrzVnqInKdv4Q7IGBnnWJoSBpJofbaqw7aM8F+ZKKtTyNOpLnM9R8htiosmZCmuu6KqT80DGcLEp3IKOBkUdlnKqMMgfsy9TkqWbyIPR7xUGGuqUI3GgYy3SJpcgq2O5z8C2nTAcLZHEyZEwzhhhCmtZ2Mc3gVMB1Q26+kxQZStIIhgeVUARDOgGGDpW8gKGJ3MaqCwau1FahN1xTkzkmjYCFJqoj8BpGHgxlagJhOxHh4SZEm6IJMst8CRiqEKUT9PFNC37SVULB9aTGOrX8DWdLMySopabzxJb5lyM+diyyzlBQRq3yA4VoGqz4QGxD28YwuKwRMPwuI8Op6wrw3tbEgVTBm3gya7d6Z/m8qU/jsQHvgoCAPoSAJhRO3TpMPANCA8fyGZpASnRBNVKdNkjNe9BwDWbY9YCw9+MBDz7MGHKUbJlbDMFurcuQCXIXwoBB5yueJAAdu8TTM1+/XrZSIENGgOFfgcw1hmN4HqqUuVd50LPS71dojOK3igoyaXkiY5ApYSLc6jSHGDmBp/QZYmzh6v8AE1lpDVqlFrXRdmcuBs3BMFPWhHmSDJG3IU62yg8vTyVDDDFnyMnt2f6rVJmaant+Cig1bKveJcow7yrf56cMOhw3fyZTlog+huRQEIEIeI4/wunA1g/IsDCmudcgpXIos3rhL5mJS+7mO75+lyxlQRGS4vNtCKbGFjVm9ABopHHPF5O65cGwdNHpSqJIrdG4PLi4aDX/6LY5zvte7j3gxibem3YGF61B575NOTEo0Sp/h9QRI5OyrkGGyxPTaEPhVnMKcTcw7JbLDwZkIpBCi1wQSHTOzyBGcCZXv+M77h+M5QCL50eX2zAstbVQgPOU2rc0AsNutiDbFsGkKYoMDg1SWVFnAm95Hg9xKu6SloEZBD2QJUOSLoPvGHmSNXIEyOhSY0gTgaHAdDykYSlEBoaSoEC8wlEBHKKGGTQYME+QZQzjwCiLwJwZ4axGQFBQ7raaa2t5pr8lH2sUAL6N9qf2eSZDKCKCzvKQ4stm3tVUUcNsH16qg28xCPxmupDPBxubwItCJmxQ59RSwNBU2qKI254E4KX6Ex085u/+VnDizxODk9TsfN61XZMplsBr+XzeNjUVbMuCIZQab0MQzJ7p2r4IcZ5CCFfXwgU1nFoBu4oNg+BRw7CA4aQLkAeh+bMSMrDwpxgFzFlxX6OkKObJNzSoHBdu6fIHFW70x4dIsHUOe5HgMijGrLgFBN5guy5EBury9KIM3Lfzhh0G+Y8vQ0GwBB9zhovzP9j+2Ra08LwM89u/8gRCEqSHh7O/VmLxLtS42LmG6oHaD70gBpHhow2exD+DhEsVSwCG19utW3zVTdsIsl5BmTNckAzlyvOrZ0nmZ0qWED4mlVNoFJset1SEDwaAv43ECAzao2VXQhbmYMnQbBmyxW7M5xkKr2Goe/4u5/JIWS6zYDg32c8zBKMGJmHbRWBgGB6N4Z9iKDwjQ/4RdDq5v58+cDjxKTxmGA6xJYbkZwyh+zjqWNvOQt2YLq5tc2gEBP7xcu+s4ev3fwpZ1sHQQjCNR9aWfwgvXr5/HByKKJ1uOQp9hqL/0p0xXKf0k8vnwXOiqzlbT5Ve+TLkA3pPMXklwZ/j1Qw5zrDd7tb7aTqmS8DE89st1L4NqEQftl+xGBiuLIQMN+jlt4J/fNEg0g4WLIZnWhCz8AtD9/HgFVyANegu9tJUvuOUCY6z1x2SeVsIiqFZEr3fxaa2+N9Pw71sNDyh/Bl4EtvVBLKjDbQDByJM2Y8FPwO3AJBcyMqudghXznBVU0WKH8xwNreG/4GM4n5nS9v3uOj0CRiGk9yiRnhqaMoOz1tcSKKKDEMz+hHmlC4xJJipqjs9M5MamzYJZPhRZmblxBQv6NZ4t8fXWp4rkg9lyC32VxHeOd391xeudHU1sf4IhuHRHKb883L35w8r14zbfOPZ5iBa8GEDQvA7L7YmK4p1/TbnK1u/KYr0zgqKCbwLsE0N6LluPm9b1zdv9v2pr44iveteZ1VlijOScLbLnwmxvHa3N3jDL4Okbi3+XYeiqspWuXQxuPzq41+t4Vufx8+cM7CnKnk01bV7hEZT777zN7Iy55wpqkR7ujk7Z6gao4v3JQiK2pNEotnB+dF5OrxzDykIgsQT+4Tt9szWyzBoy6LtL17gPgJK5XmwsSt6qopbbSzBPDm5+pAvYw1vHVVWPAlaofjKtGMBElPlPfxyiqZefdAXTlKDCTWJH/6K24vucQ0yb0m8JMnemxzUfhkyzf8Y6IddE78mIzNZ3TzYWWNIKag/xc/VeW/3zYSXIHXxx2TkKOrJyYmpWBalm2RTuGAajODlkxbg2TXXptfvbkUfkywNvt7/58uXL93xea93pm5wCArPm+BXUniZhF8Y5DBxV1131Pks34pMZQC41XUMebfxWoKWdTcCWryCy5MYeEJYzfOMvPHHWTbDwKOcZryKIESbd61hr+1ZzDwxATiwdWv0RonDtkh1Fct4FUP8GB9uEMm0ytOHkYUfZZLOHqbli8/zWcFVDEaO8CotZZw+O4OdqpSGLcCw9F5futoEqXMLIoBXgBry1+er/UwYthmeaXvhsgZhkvHeecPWaEqYpErk8T6CRwrKgKEy2mov4Ucg3lOYgNujyEvicGX7ddv3R2Zs24bxgkyDcJA9lD/ZF3VfhMokn7ep9OzBUcIpo9tPbDV/gcp/8q7keRL9ZVIsC4rzX0oQKP7VNTxJwq9UPdq7EFwIlFOJ84GJ0bZI+ec8DCpY1tq2FN6iIu7n4FRt1PxvHINzDK4ZocAPv1u+2DwFwnM4k/l7/Scfnxhth0qPKo4i43no2d4GAE69MAyuz8qf5WPPW2B4fmfp1m9zhhhVO6fWqXOS/5SJ0QaIX/Tap3+e6kxngQxl5fRP5/T0y9XHfwN5Z6gMvl7jPx7g7xXV+NM///z+9RP/Iw+bIVUalM/H3Um3Oz6/bL3Dx3E/CKlU6n+WW4QIESJEiBAhQoT/eWz2j+q97z/Fl0xXt3hd8qjw+tLxwlF181e++m3FbC2xefF0trYBw9phYfNXvvptjePtGB5twjD7jgxjB8n9LbQ0fbgRw/eU4ZZIHxbfUYZrFuoJg/VcY56vYf5D+Msywxf8a6XBExsyPCgUj4qF6mxM7ReKxWIjGQ8v0vFYvNpoHMQLheS8yH6hkIglC6Fdg9+PFkX8S6hw7+k3HRXTB6sMD9LFpecPCnMbm8C3+DUmwxo3Y5juZ7N1QK0a1JrDi2y9GLajFj8o1g9zyfjRYuCAGYW/F+pBG5O14+xxPZvNFf1G7hehNF6ue4N4Ad50nM1m+9Brc4ZxfH8Wnu8HdKqHuXlfHx/7nXpQzGETs7n0RgyTuWyxmqwWavUGEiwe5hrVZLKQOzxKBAz3jg5ztcZBLF3PzYS43z9Ox2YMq/3DfqGaTBdz8Cz+BpfJZLVYr682Jt7I1o/S+KYsNjNkGG9A32Lxo2y2mHiS4UHtsF5MV6uNfh366NUM4b1BXyaqKLTCYS7t36/mfKsFDIuHxWQCHknUDhthoYLvCQOGe/3D2r5fU7UPDKGLwkuoKrn8okK2Hkj1oHG8YFiAjvAZJQrHh434EwzjDWiTX3APem0DhsXlMgf9uTUuHPYPsB3ZeiMx49X3NRe4+mV8hvD+2mzE7e/5DQx5gVovW8skdNlsoCbnWgr905jdLWSRUPXwL6sMk/V6OrwBnbyRDIM+95E+7M+qP+hjxenDw7lbh9aE8g2o+gz3+tn0cnXFuaDBp4c94qNwuBofBAwLixdix0HZan2NYWOpYLW+gT+s5rL9uRlsYI/GfeMdtBVkuCDQCGwNiL0RKFgxhqNziUYs0c9Wgwri0MDsQk2XdHyJ4XKH+Moff8Rwxckn+hswBFt2eAiDHUnCC/vFGfrYhPRhbiHh/Vw9GVuYOJ8hiGbZZO6BuZlVUKsv9U5ipgCrDFdiFF831hmuFjzayB/uFY5yh2BCEzh06rkFGshwSbfCHi+EEaWvpY8YZmelj3O5/gsYLt2tZo/fhiG8fj9dq+MbwW7u7e3v7e/vIRKBP1xqVR06GYZL8EqfIdxaHl4HMCyDGvaxkkXZxHpE6cel8RXdhYGbeMxwueA2kXeiUAd9LKwHi6sMfXJzsfoMk3+pL2dsidqaqOZta6xF2gHDxlL9QRxRredmtjmJxhUUZ9Gm/Q384RxgO6tg0ld82DpDVNDE3L34DIHSSqesm8w5qtncvCvisVluUa0fz+8mj1E59hfOoeG7j/TCr4Lh38BbVEM7Cgz9Dpt5t0Sj+pjhQf+4kJv5gMDjp+uhIweHBpHeXr8+c3DJxnJomjjK1sKW7hXTM4Ygt/7sbs2PI6DLwj6qHmeRG4Q0YZvi6eMNGIKuN6qJePyg4dcPMVctfQCX1SP/eo0hRl7ZGYOAIYZdGPQkIE5DKaXDy73CmmVPQjiX3oMfIBA9is/yQz/I20vED+BuwLUA4VsygeX7vgwxvII2JRLJRv1oAy1NNKCn+rVaP1SiJESNeHkc9Hh6TekgMpnrTCFoY6IBgXm/1s8FwVUcQtpcDWo4zDZW9XVWdTZ7tLfIgBd3QxHDMMAKoBugs/AW+rN6H5tUPNjE0kBmUgPb3i+GDT8o1HLHx8e1MNLvr5qeeDE3v5HuB9KMV4u5XD3Xb4SeM9noQ36SO3o0T5Uo1I6x6nQQsIe6MLtbOFg8Bi3oNxIHtVA996HGXA7LFftPG7JnkNhP7icWzYnvV5MzOx9PrDUzfjAXzCJtjR8kq8klgSXg8uCpnDaxXPXCiO5Xq/uJlceS/vXiEbjjl3vf2cQIESJEiBAhQoQIESJEiBAhQoQIESJEiBAhQoQIESJEiBAhQoT/t/g/sgXJHNenncUAAAAASUVORK5CYII=;" vertex="1" parent="1">
          <mxGeometry x="592.5" y="15" width="95" height="95" as="geometry" />
        </mxCell>
        <mxCell id="TBmU6OTi5INBtIkwRago-5" value="" style="html=1;points=[];perimeter=orthogonalPerimeter;outlineConnect=0;targetShapes=umlLifeline;portConstraint=eastwest;newEdgeStyle={&quot;edgeStyle&quot;:&quot;elbowEdgeStyle&quot;,&quot;elbow&quot;:&quot;vertical&quot;,&quot;curved&quot;:0,&quot;rounded&quot;:0};" vertex="1" parent="1">
          <mxGeometry x="645" y="200" width="10" height="430" as="geometry" />
        </mxCell>
        <mxCell id="TBmU6OTi5INBtIkwRago-27" value="/project" style="text;html=1;align=center;verticalAlign=middle;resizable=0;points=[];autosize=1;strokeColor=none;fillColor=none;" vertex="1" parent="1">
          <mxGeometry x="95" y="390" width="60" height="30" as="geometry" />
        </mxCell>
        <mxCell id="TBmU6OTi5INBtIkwRago-28" value="" style="endArrow=classic;html=1;rounded=0;" edge="1" parent="1">
          <mxGeometry relative="1" as="geometry">
            <mxPoint x="170" y="404.40999999999997" as="sourcePoint" />
            <mxPoint x="270" y="404.40999999999997" as="targetPoint" />
          </mxGeometry>
        </mxCell>
        <mxCell id="TBmU6OTi5INBtIkwRago-29" value="POST" style="edgeLabel;html=1;align=center;verticalAlign=middle;resizable=0;points=[];" vertex="1" connectable="0" parent="TBmU6OTi5INBtIkwRago-28">
          <mxGeometry x="-0.3222" relative="1" as="geometry">
            <mxPoint as="offset" />
          </mxGeometry>
        </mxCell>
        <mxCell id="TBmU6OTi5INBtIkwRago-38" value="Request&amp;nbsp;" style="html=1;verticalAlign=bottom;endArrow=block;edgeStyle=elbowEdgeStyle;elbow=vertical;curved=0;rounded=0;" edge="1" parent="1">
          <mxGeometry x="-0.0435" y="10" relative="1" as="geometry">
            <mxPoint x="290" y="400" as="sourcePoint" />
            <Array as="points">
              <mxPoint x="475" y="400" />
              <mxPoint x="185" y="250" />
            </Array>
            <mxPoint x="645" y="400" as="targetPoint" />
            <mxPoint as="offset" />
          </mxGeometry>
        </mxCell>
        <mxCell id="TBmU6OTi5INBtIkwRago-39" value="" style="edgeStyle=orthogonalEdgeStyle;html=1;endArrow=none;elbow=vertical;startArrow=openThin;startFill=0;strokeColor=#545B64;rounded=0;" edge="1" parent="1">
          <mxGeometry width="100" relative="1" as="geometry">
            <mxPoint x="290" y="440" as="sourcePoint" />
            <mxPoint x="640" y="440" as="targetPoint" />
          </mxGeometry>
        </mxCell>
        <mxCell id="TBmU6OTi5INBtIkwRago-40" value="&lt;font style=&quot;font-size: 11px;&quot;&gt;Response&amp;nbsp;&lt;/font&gt;" style="text;html=1;align=center;verticalAlign=middle;resizable=0;points=[];autosize=1;strokeColor=none;fillColor=none;" vertex="1" parent="1">
          <mxGeometry x="425" y="410" width="80" height="30" as="geometry" />
        </mxCell>
        <mxCell id="TBmU6OTi5INBtIkwRago-41" value="/getAccountByCustomerId" style="text;html=1;align=center;verticalAlign=middle;resizable=0;points=[];autosize=1;strokeColor=none;fillColor=none;" vertex="1" parent="1">
          <mxGeometry x="10" y="520" width="160" height="30" as="geometry" />
        </mxCell>
        <mxCell id="TBmU6OTi5INBtIkwRago-42" value="" style="endArrow=classic;html=1;rounded=0;" edge="1" parent="1">
          <mxGeometry relative="1" as="geometry">
            <mxPoint x="175" y="540" as="sourcePoint" />
            <mxPoint x="275" y="540" as="targetPoint" />
          </mxGeometry>
        </mxCell>
        <mxCell id="TBmU6OTi5INBtIkwRago-43" value="GET" style="edgeLabel;html=1;align=center;verticalAlign=middle;resizable=0;points=[];" vertex="1" connectable="0" parent="TBmU6OTi5INBtIkwRago-42">
          <mxGeometry x="-0.3222" relative="1" as="geometry">
            <mxPoint as="offset" />
          </mxGeometry>
        </mxCell>
        <mxCell id="TBmU6OTi5INBtIkwRago-48" value="Request&amp;nbsp;" style="html=1;verticalAlign=bottom;endArrow=block;edgeStyle=elbowEdgeStyle;elbow=vertical;curved=0;rounded=0;" edge="1" parent="1">
          <mxGeometry x="-0.0435" y="10" relative="1" as="geometry">
            <mxPoint x="290" y="530" as="sourcePoint" />
            <Array as="points">
              <mxPoint x="475" y="530" />
              <mxPoint x="185" y="380" />
            </Array>
            <mxPoint x="645" y="530" as="targetPoint" />
            <mxPoint as="offset" />
          </mxGeometry>
        </mxCell>
        <mxCell id="TBmU6OTi5INBtIkwRago-49" value="" style="edgeStyle=orthogonalEdgeStyle;html=1;endArrow=none;elbow=vertical;startArrow=openThin;startFill=0;strokeColor=#545B64;rounded=0;" edge="1" parent="1">
          <mxGeometry width="100" relative="1" as="geometry">
            <mxPoint x="290" y="560" as="sourcePoint" />
            <mxPoint x="640" y="560" as="targetPoint" />
            <Array as="points">
              <mxPoint x="380" y="560" />
              <mxPoint x="380" y="560" />
            </Array>
          </mxGeometry>
        </mxCell>
        <mxCell id="TBmU6OTi5INBtIkwRago-50" value="&lt;font style=&quot;font-size: 11px;&quot;&gt;Response&amp;nbsp;&lt;/font&gt;" style="text;html=1;align=center;verticalAlign=middle;resizable=0;points=[];autosize=1;strokeColor=none;fillColor=none;" vertex="1" parent="1">
          <mxGeometry x="425" y="535" width="80" height="30" as="geometry" />
        </mxCell>
      </root>
    </mxGraphModel>
  </diagram>
</mxfile>
